<svg xmlns="http://www.w3.org/2000/svg">
<!-- Ready-made Lucide icons. Original geometry retained; source and license accompany this sprite. -->
<symbol id="food_fresh" viewBox="0 0 24 24" fill="none" stroke="currentColor" stroke-width="1.5" stroke-linecap="round" stroke-linejoin="round">
<path d="M12 6.528V3a1 1 0 0 1 1-1h0" />
  <path d="M18.237 21A15 15 0 0 0 22 11a6 6 0 0 0-10-4.472A6 6 0 0 0 2 11a15.1 15.1 0 0 0 3.763 10 3 3 0 0 0 3.648.648 5.5 5.5 0 0 1 5.178 0A3 3 0 0 0 18.237 21" />
</symbol>
<symbol id="food_processed" viewBox="0 0 24 24" fill="none" stroke="currentColor" stroke-width="1.5" stroke-linecap="round" stroke-linejoin="round">
<path d="M12 22V12" />
  <path d="m16 17 2 2 4-4" />
  <path d="M21 11.127V8a2 2 0 0 0-1-1.73l-7-4a2 2 0 0 0-2 0l-7 4A2 2 0 0 0 3 8v8a2 2 0 0 0 1 1.729l7 4a2 2 0 0 0 2 .001l1.32-.753" />
  <path d="M3.29 7 12 12l8.71-5" />
  <path d="m7.5 4.27 8.997 5.148" />
</symbol>
<symbol id="beverages" viewBox="0 0 24 24" fill="none" stroke="currentColor" stroke-width="1.5" stroke-linecap="round" stroke-linejoin="round">
<path d="M8 22h8" />
  <path d="M7 10h10" />
  <path d="M12 15v7" />
  <path d="M12 15a5 5 0 0 0 5-5c0-2-.5-4-2-8H9c-1.5 4-2 6-2 8a5 5 0 0 0 5 5Z" />
</symbol>
<symbol id="catering" viewBox="0 0 24 24" fill="none" stroke="currentColor" stroke-width="1.5" stroke-linecap="round" stroke-linejoin="round">
<path d="M3 2v7c0 1.1.9 2 2 2h4a2 2 0 0 0 2-2V2" />
  <path d="M7 2v20" />
  <path d="M21 15V2a5 5 0 0 0-5 5v6c0 1.1.9 2 2 2h3Zm0 0v7" />
</symbol>
<symbol id="building_materials" viewBox="0 0 24 24" fill="none" stroke="currentColor" stroke-width="1.5" stroke-linecap="round" stroke-linejoin="round">
<rect width="18" height="18" x="3" y="3" rx="2" />
  <path d="M12 9v6" />
  <path d="M16 15v6" />
  <path d="M16 3v6" />
  <path d="M3 15h18" />
  <path d="M3 9h18" />
  <path d="M8 15v6" />
  <path d="M8 3v6" />
</symbol>
<symbol id="renovation" viewBox="0 0 24 24" fill="none" stroke="currentColor" stroke-width="1.5" stroke-linecap="round" stroke-linejoin="round">
<rect width="16" height="6" x="2" y="2" rx="2" />
  <path d="M10 16v-2a2 2 0 0 1 2-2h8a2 2 0 0 0 2-2V7a2 2 0 0 0-2-2h-2" />
  <rect width="4" height="6" x="8" y="16" rx="1" />
</symbol>
<symbol id="engineering" viewBox="0 0 24 24" fill="none" stroke="currentColor" stroke-width="1.5" stroke-linecap="round" stroke-linejoin="round">
<rect x="2" y="6" width="20" height="8" rx="1" />
  <path d="M17 14v7" />
  <path d="M7 14v7" />
  <path d="M17 3v3" />
  <path d="M7 3v3" />
  <path d="M10 14 2.3 6.3" />
  <path d="m14 6 7.7 7.7" />
  <path d="m8 6 8 8" />
</symbol>
<symbol id="furniture" viewBox="0 0 24 24" fill="none" stroke="currentColor" stroke-width="1.5" stroke-linecap="round" stroke-linejoin="round">
<path d="M19 9V6a2 2 0 0 0-2-2H7a2 2 0 0 0-2 2v3" />
  <path d="M3 16a2 2 0 0 0 2 2h14a2 2 0 0 0 2-2v-5a2 2 0 0 0-4 0v1.5a.5.5 0 0 1-.5.5h-9a.5.5 0 0 1-.5-.5V11a2 2 0 0 0-4 0z" />
  <path d="M5 18v2" />
  <path d="M19 18v2" />
</symbol>
<symbol id="equipment" viewBox="0 0 24 24" fill="none" stroke="currentColor" stroke-width="1.5" stroke-linecap="round" stroke-linejoin="round">
<path d="M15 21v-5a1 1 0 0 0-1-1h-4a1 1 0 0 0-1 1v5" />
  <path d="M17.774 10.31a1.12 1.12 0 0 0-1.549 0 2.5 2.5 0 0 1-3.451 0 1.12 1.12 0 0 0-1.548 0 2.5 2.5 0 0 1-3.452 0 1.12 1.12 0 0 0-1.549 0 2.5 2.5 0 0 1-3.77-3.248l2.889-4.184A2 2 0 0 1 7 2h10a2 2 0 0 1 1.653.873l2.895 4.192a2.5 2.5 0 0 1-3.774 3.244" />
  <path d="M4 10.95V19a2 2 0 0 0 2 2h12a2 2 0 0 0 2-2v-8.05" />
</symbol>
<symbol id="textiles" viewBox="0 0 24 24" fill="none" stroke="currentColor" stroke-width="1.5" stroke-linecap="round" stroke-linejoin="round">
<path d="M20.38 3.46 16 2a4 4 0 0 1-8 0L3.62 3.46a2 2 0 0 0-1.34 2.23l.58 3.47a1 1 0 0 0 .99.84H6v10c0 1.1.9 2 2 2h8a2 2 0 0 0 2-2V10h2.15a1 1 0 0 0 .99-.84l.58-3.47a2 2 0 0 0-1.34-2.23z" />
</symbol>
<symbol id="packaging" viewBox="0 0 24 24" fill="none" stroke="currentColor" stroke-width="1.5" stroke-linecap="round" stroke-linejoin="round">
<path d="M12 22v-9" />
  <path d="M15.17 2.21a1.67 1.67 0 0 1 1.63 0L21 4.57a1.93 1.93 0 0 1 0 3.36L8.82 14.79a1.655 1.655 0 0 1-1.64 0L3 12.43a1.93 1.93 0 0 1 0-3.36z" />
  <path d="M20 13v3.87a2.06 2.06 0 0 1-1.11 1.83l-6 3.08a1.93 1.93 0 0 1-1.78 0l-6-3.08A2.06 2.06 0 0 1 4 16.87V13" />
  <path d="M21 12.43a1.93 1.93 0 0 0 0-3.36L8.83 2.2a1.64 1.64 0 0 0-1.63 0L3 4.57a1.93 1.93 0 0 0 0 3.36l12.18 6.86a1.636 1.636 0 0 0 1.63 0z" />
</symbol>
<symbol id="printing" viewBox="0 0 24 24" fill="none" stroke="currentColor" stroke-width="1.5" stroke-linecap="round" stroke-linejoin="round">
<path d="M6 18H4a2 2 0 0 1-2-2v-5a2 2 0 0 1 2-2h16a2 2 0 0 1 2 2v5a2 2 0 0 1-2 2h-2" />
  <path d="M6 9V3a1 1 0 0 1 1-1h10a1 1 0 0 1 1 1v6" />
  <rect x="6" y="14" width="12" height="8" rx="1" />
</symbol>
<symbol id="freight" viewBox="0 0 24 24" fill="none" stroke="currentColor" stroke-width="1.5" stroke-linecap="round" stroke-linejoin="round">
<path d="M14 18V6a2 2 0 0 0-2-2H4a2 2 0 0 0-2 2v11a1 1 0 0 0 1 1h2" />
  <path d="M15 18H9" />
  <path d="M19 18h2a1 1 0 0 0 1-1v-3.65a1 1 0 0 0-.22-.624l-3.48-4.35A1 1 0 0 0 17.52 8H14" />
  <circle cx="17" cy="18" r="2" />
  <circle cx="7" cy="18" r="2" />
</symbol>
<symbol id="warehouse" viewBox="0 0 24 24" fill="none" stroke="currentColor" stroke-width="1.5" stroke-linecap="round" stroke-linejoin="round">
<path d="M18 21V10a1 1 0 0 0-1-1H7a1 1 0 0 0-1 1v11" />
  <path d="M22 19a2 2 0 0 1-2 2H4a2 2 0 0 1-2-2V8a2 2 0 0 1 1.132-1.803l7.95-3.974a2 2 0 0 1 1.837 0l7.948 3.974A2 2 0 0 1 22 8z" />
  <path d="M6 13h12" />
  <path d="M6 17h12" />
</symbol>
<symbol id="customs" viewBox="0 0 24 24" fill="none" stroke="currentColor" stroke-width="1.5" stroke-linecap="round" stroke-linejoin="round">
<rect width="8" height="4" x="8" y="2" rx="1" ry="1" />
  <path d="M16 4h2a2 2 0 0 1 2 2v14a2 2 0 0 1-2 2H6a2 2 0 0 1-2-2V6a2 2 0 0 1 2-2h2" />
  <path d="m9 14 2 2 4-4" />
</symbol>
<symbol id="wholesale" viewBox="0 0 24 24" fill="none" stroke="currentColor" stroke-width="1.5" stroke-linecap="round" stroke-linejoin="round">
<path d="m2.05 2.05 1.099-.028a1 1 0 0 1 1.008.815l2.69 14.347A1 1 0 0 0 7.83 18H18" />
  <path d="M4.563 5h16.435a1 1 0 0 1 .981 1.204l-1.026 6.226A2 2 0 0 1 18.962 14H6.25" />
  <circle cx="18" cy="20" r="2" />
  <circle cx="8" cy="20" r="2" />
</symbol>
<symbol id="office_household" viewBox="0 0 24 24" fill="none" stroke="currentColor" stroke-width="1.5" stroke-linecap="round" stroke-linejoin="round">
<path d="M12 12h.01" />
  <path d="M16 6V4a2 2 0 0 0-2-2h-4a2 2 0 0 0-2 2v2" />
  <path d="M22 13a18.15 18.15 0 0 1-20 0" />
  <rect width="20" height="14" x="2" y="6" rx="2" />
</symbol>
<symbol id="cleaning" viewBox="0 0 24 24" fill="none" stroke="currentColor" stroke-width="1.5" stroke-linecap="round" stroke-linejoin="round">
<path d="M3 3h.01" />
  <path d="M7 5h.01" />
  <path d="M11 7h.01" />
  <path d="M3 7h.01" />
  <path d="M7 9h.01" />
  <path d="M3 11h.01" />
  <rect width="4" height="4" x="15" y="5" />
  <path d="m19 9 2 2v10c0 .6-.4 1-1 1h-6c-.6 0-1-.4-1-1V11l2-2" />
  <path d="m13 14 8-2" />
  <path d="m13 19 8-2" />
</symbol>
<symbol id="laundry" viewBox="0 0 24 24" fill="none" stroke="currentColor" stroke-width="1.5" stroke-linecap="round" stroke-linejoin="round">
<path d="M3 6h3" />
  <path d="M17 6h.01" />
  <rect width="18" height="20" x="3" y="2" rx="2" />
  <circle cx="12" cy="13" r="5" />
  <path d="M12 18a2.5 2.5 0 0 0 0-5 2.5 2.5 0 0 1 0-5" />
</symbol>
<symbol id="technical_service" viewBox="0 0 24 24" fill="none" stroke="currentColor" stroke-width="1.5" stroke-linecap="round" stroke-linejoin="round">
<path d="M14.7 6.3a1 1 0 0 0 0 1.4l1.6 1.6a1 1 0 0 0 1.4 0l3.106-3.105c.32-.322.863-.22.983.218a6 6 0 0 1-8.259 7.057l-7.91 7.91a1 1 0 0 1-2.999-3l7.91-7.91a6 6 0 0 1 7.057-8.259c.438.12.54.662.219.984z" />
</symbol>
<symbol id="security" viewBox="0 0 24 24" fill="none" stroke="currentColor" stroke-width="1.5" stroke-linecap="round" stroke-linejoin="round">
<path d="M20 13c0 5-3.5 7.5-7.66 8.95a1 1 0 0 1-.67-.01C7.5 20.5 4 18 4 13V6a1 1 0 0 1 1-1c2 0 4.5-1.2 6.24-2.72a1.17 1.17 0 0 1 1.52 0C14.51 3.81 17 5 19 5a1 1 0 0 1 1 1z" />
  <path d="m9 12 2 2 4-4" />
</symbol>
<symbol id="software_web" viewBox="0 0 24 24" fill="none" stroke="currentColor" stroke-width="1.5" stroke-linecap="round" stroke-linejoin="round">
<path d="m10 9-3 3 3 3" />
  <path d="m14 15 3-3-3-3" />
  <rect x="3" y="3" width="18" height="18" rx="2" />
</symbol>
<symbol id="it_support" viewBox="0 0 24 24" fill="none" stroke="currentColor" stroke-width="1.5" stroke-linecap="round" stroke-linejoin="round">
<path d="M3 14h3a2 2 0 0 1 2 2v3a2 2 0 0 1-2 2H5a2 2 0 0 1-2-2v-7a9 9 0 0 1 18 0v7a2 2 0 0 1-2 2h-1a2 2 0 0 1-2-2v-3a2 2 0 0 1 2-2h3" />
</symbol>
<symbol id="branding_design" viewBox="0 0 24 24" fill="none" stroke="currentColor" stroke-width="1.5" stroke-linecap="round" stroke-linejoin="round">
<path d="M15.707 21.293a1 1 0 0 1-1.414 0l-1.586-1.586a1 1 0 0 1 0-1.414l5.586-5.586a1 1 0 0 1 1.414 0l1.586 1.586a1 1 0 0 1 0 1.414z" />
  <path d="m18 13-1.375-6.874a1 1 0 0 0-.746-.776L3.235 2.028a1 1 0 0 0-1.207 1.207L5.35 15.879a1 1 0 0 0 .776.746L13 18" />
  <path d="m2.3 2.3 7.286 7.286" />
  <circle cx="11" cy="11" r="2" />
</symbol>
<symbol id="advertising" viewBox="0 0 24 24" fill="none" stroke="currentColor" stroke-width="1.5" stroke-linecap="round" stroke-linejoin="round">
<path d="M11 6a13 13 0 0 0 8.4-2.8A1 1 0 0 1 21 4v12a1 1 0 0 1-1.6.8A13 13 0 0 0 11 14H5a2 2 0 0 1-2-2V8a2 2 0 0 1 2-2z" />
  <path d="M6 14a12 12 0 0 0 2.4 7.2 2 2 0 0 0 3.2-2.4A8 8 0 0 1 10 14" />
  <path d="M8 6v8" />
</symbol>
<symbol id="photo_video" viewBox="0 0 24 24" fill="none" stroke="currentColor" stroke-width="1.5" stroke-linecap="round" stroke-linejoin="round">
<path d="M13.997 4a2 2 0 0 1 1.76 1.05l.486.9A2 2 0 0 0 18.003 7H20a2 2 0 0 1 2 2v9a2 2 0 0 1-2 2H4a2 2 0 0 1-2-2V9a2 2 0 0 1 2-2h1.997a2 2 0 0 0 1.759-1.048l.489-.904A2 2 0 0 1 10.004 4z" />
  <circle cx="12" cy="13" r="3" />
</symbol>
<symbol id="events" viewBox="0 0 24 24" fill="none" stroke="currentColor" stroke-width="1.5" stroke-linecap="round" stroke-linejoin="round">
<path d="M8 2v3" />
  <path d="M16 2v3" />
  <rect x="3" y="3" width="18" height="18" rx="2" />
  <path d="M3 9h18" />
  <path d="M8 13h.01" />
  <path d="M12 13h.01" />
  <path d="M16 13h.01" />
  <path d="M8 17h.01" />
  <path d="M12 17h.01" />
  <path d="M16 17h.01" />
</symbol>
<symbol id="accounting" viewBox="0 0 24 24" fill="none" stroke="currentColor" stroke-width="1.5" stroke-linecap="round" stroke-linejoin="round">
<rect width="16" height="20" x="4" y="2" rx="2" />
  <line x1="8" x2="16" y1="6" y2="6" />
  <line x1="16" x2="16" y1="14" y2="18" />
  <path d="M16 10h.01" />
  <path d="M12 10h.01" />
  <path d="M8 10h.01" />
  <path d="M12 14h.01" />
  <path d="M8 14h.01" />
  <path d="M12 18h.01" />
  <path d="M8 18h.01" />
</symbol>
<symbol id="legal" viewBox="0 0 24 24" fill="none" stroke="currentColor" stroke-width="1.5" stroke-linecap="round" stroke-linejoin="round">
<path d="M12 3v18" />
  <path d="m19 8 3 8a5 5 0 0 1-6 0zV7" />
  <path d="M3 7h1a17 17 0 0 0 8-2 17 17 0 0 0 8 2h1" />
  <path d="m5 8 3 8a5 5 0 0 1-6 0zV7" />
  <path d="M7 21h10" />
</symbol>
<symbol id="consulting" viewBox="0 0 24 24" fill="none" stroke="currentColor" stroke-width="1.5" stroke-linecap="round" stroke-linejoin="round">
<path d="M12 16v5" />
  <path d="M16 14.639V21" />
  <path d="M20 10.656V21" />
  <path d="m22 3-8.646 8.646a.5.5 0 0 1-.708 0L9.354 8.354a.5.5 0 0 0-.707 0L2 15" />
  <path d="M4 18.463V21" />
  <path d="M8 14.656V21" />
</symbol>
<symbol id="hr_training" viewBox="0 0 24 24" fill="none" stroke="currentColor" stroke-width="1.5" stroke-linecap="round" stroke-linejoin="round">
<path d="M18 21a8 8 0 0 0-16 0" />
  <circle cx="10" cy="8" r="5" />
  <path d="M22 20c0-3.37-2-6.5-4-8a5 5 0 0 0-.45-8.3" />
</symbol>
<symbol id="leasing" viewBox="0 0 24 24" fill="none" stroke="currentColor" stroke-width="1.5" stroke-linecap="round" stroke-linejoin="round">
<path d="m11 17 2 2a1 1 0 1 0 3-3" />
  <path d="m14 14 2.5 2.5a1 1 0 1 0 3-3l-3.88-3.88a3 3 0 0 0-4.24 0l-.88.88a1 1 0 1 1-3-3l2.81-2.81a5.79 5.79 0 0 1 7.06-.87l.47.28a2 2 0 0 0 1.42.25L21 4" />
  <path d="m21 3 1 11h-2" />
  <path d="M3 3 2 14l6.5 6.5a1 1 0 1 0 3-3" />
  <path d="M3 4h8" />
</symbol>
<symbol id="business_finance" viewBox="0 0 24 24" fill="none" stroke="currentColor" stroke-width="1.5" stroke-linecap="round" stroke-linejoin="round">
<path d="M10 18v-7" />
  <path d="M11.119 2.205a2 2 0 0 1 1.762 0l7.84 3.846A.5.5 0 0 1 20.5 7h-17a.5.5 0 0 1-.22-.949z" />
  <path d="M14 18v-7" />
  <path d="M18 18v-7" />
  <path d="M3 22h18" />
  <path d="M6 18v-7" />
</symbol>
<symbol id="business_insurance" viewBox="0 0 24 24" fill="none" stroke="currentColor" stroke-width="1.5" stroke-linecap="round" stroke-linejoin="round">
<path d="M20 13c0 5-3.5 7.5-7.66 8.95a1 1 0 0 1-.67-.01C7.5 20.5 4 18 4 13V6a1 1 0 0 1 1-1c2 0 4.5-1.2 6.24-2.72a1.17 1.17 0 0 1 1.52 0C14.51 3.81 17 5 19 5a1 1 0 0 1 1 1z" />
</symbol>
<symbol id="hotel_services" viewBox="0 0 24 24" fill="none" stroke="currentColor" stroke-width="1.5" stroke-linecap="round" stroke-linejoin="round">
<path d="M2 20v-8a2 2 0 0 1 2-2h16a2 2 0 0 1 2 2v8" />
  <path d="M4 10V6a2 2 0 0 1 2-2h12a2 2 0 0 1 2 2v4" />
  <path d="M12 4v6" />
  <path d="M2 18h20" />
</symbol>
<symbol id="tours" viewBox="0 0 24 24" fill="none" stroke="currentColor" stroke-width="1.5" stroke-linecap="round" stroke-linejoin="round">
<path d="M18 8c0 3.613-3.869 7.429-5.393 8.795a1 1 0 01-1.214 0C9.87 15.429 6 11.613 6 8a6 6 0 0112 0" />
  <path d="M4.474 15h-.197a1 1 0 00-.969.753l-1.097 4.35a1.5 1.5 0 001.444 1.898L20.344 22a1.5 1.5 0 001.446-1.897l-1.098-4.35a1 1 0 00-.969-.753h-.197" />
  <circle cx="12" cy="8" r="2" />
</symbol>
<symbol id="other" viewBox="0 0 24 24" fill="none" stroke="currentColor" stroke-width="1.5" stroke-linecap="round" stroke-linejoin="round">
<rect width="7" height="7" x="3" y="3" rx="1" />
  <rect width="7" height="7" x="14" y="3" rx="1" />
  <rect width="7" height="7" x="14" y="14" rx="1" />
  <rect width="7" height="7" x="3" y="14" rx="1" />
</symbol>
</svg>
